<svg width="228" height="38" viewBox="0 0 228 38" fill="none" xmlns="http://www.w3.org/2000/svg">
<path d="M87.0354 37.9951C96.2807 37.9951 103.775 30.5004 103.775 21.2551C103.775 12.0099 96.2807 4.51514 87.0354 4.51514C77.7902 4.51514 70.2954 12.0099 70.2954 21.2551C70.2954 30.5004 77.7902 37.9951 87.0354 37.9951Z" fill="#EA2019"/>
<path d="M227.235 21.5551C227.132 21.6058 227.032 21.6626 226.935 21.7251C225.275 23.1051 224.935 23.0651 223.555 21.4151C221.825 19.2851 221.205 19.1051 218.795 20.4151C216.385 21.7251 213.855 23.3451 211.355 24.7551C209.756 25.6761 207.981 26.2486 206.145 26.4352C205.65 26.4973 205.148 26.4351 204.683 26.2543C204.218 26.0735 203.806 25.7797 203.484 25.3996C203.161 25.0194 202.938 24.5648 202.835 24.0769C202.733 23.589 202.753 23.0831 202.895 22.6051C203.146 21.6747 203.648 20.8309 204.345 20.1651C206.078 18.3854 208.153 16.9739 210.445 16.0151C211.146 15.7196 211.895 15.5503 212.655 15.5151C213.075 15.5151 213.445 15.5151 213.655 16.0151C213.774 16.2242 213.818 16.4672 213.782 16.7048C213.746 16.9425 213.631 17.161 213.455 17.3251C212.773 17.9401 211.969 18.4036 211.095 18.6852C209.915 19.0752 208.725 19.4151 207.575 19.8551C206.979 20.038 206.438 20.3671 206.001 20.8125C205.564 21.2579 205.246 21.8054 205.075 22.4052C204.966 22.6557 204.926 22.9307 204.958 23.2019C204.991 23.4732 205.094 23.7309 205.259 23.9487C205.424 24.1665 205.644 24.3366 205.896 24.4414C206.149 24.5462 206.424 24.582 206.695 24.5451C207.577 24.4967 208.435 24.236 209.195 23.7851C211.755 22.5551 214.075 20.9151 216.515 19.4651L216.705 19.3351C220.265 16.4551 224.795 17.8451 227.275 21.0751L227.235 21.5551Z" fill="white"/>
<path d="M0.725098 15.5653C1.0551 15.5653 1.0551 15.2753 1.1351 15.0653C3.1351 9.12528 7.6651 6.06526 13.3551 4.32526C13.5783 4.24148 13.8179 4.21067 14.0551 4.23527C14.2954 4.24457 14.5286 4.31936 14.7295 4.45154C14.9304 4.58372 15.0914 4.76826 15.1951 4.98527C15.3751 5.45527 14.9551 5.70527 14.6651 5.98527C13.1824 7.19932 11.6001 8.28649 9.93509 9.23527C8.0619 10.2145 6.32957 11.4422 4.7851 12.8853C3.42877 14.3162 2.63047 16.186 2.5351 18.1553C2.45799 18.8666 2.59947 19.5845 2.9407 20.2134C3.28194 20.8422 3.80672 21.3522 4.4451 21.6753C6.4246 22.9858 8.77494 23.6207 11.1451 23.4853C11.6651 23.4253 12.5551 23.3453 12.5651 23.9153C12.5751 24.4853 11.6851 24.4153 11.1751 24.4153C8.17508 24.4153 5.38509 23.9153 3.02509 21.8653C2.11261 20.9114 1.33841 19.8342 0.725098 18.6653V15.5653Z" fill="white"/>
<path d="M71.2253 17.6752C71.551 17.5845 71.8873 17.5374 72.2253 17.5352C74.0553 17.3552 75.5653 18.4053 77.1253 19.1853C77.6917 19.4423 78.1761 19.8506 78.5253 20.3653C79.1753 21.3653 78.6953 21.8953 77.9853 22.3653C77.6794 22.6229 77.2842 22.7495 76.8854 22.7177C76.4867 22.6858 76.1166 22.4981 75.8553 22.1952C75.2758 21.6541 74.7282 21.0798 74.2153 20.4752C73.9159 20.1263 73.5159 19.8785 73.0701 19.7658C72.6244 19.653 72.1547 19.6808 71.7253 19.8453C70.9985 20.0385 70.3042 20.3384 69.6653 20.7352C67.9053 21.8152 66.1253 22.8852 64.3453 23.9552C62.3938 25.217 60.1881 26.033 57.8853 26.3453C57.3607 26.4327 56.8221 26.3791 56.325 26.1899C55.8279 26.0007 55.39 25.6827 55.0562 25.2685C54.7225 24.8544 54.5048 24.3589 54.4256 23.8329C54.3463 23.3069 54.4084 22.7694 54.6053 22.2753C54.7796 21.7464 55.0509 21.2547 55.4053 20.8252C57.3171 18.5042 59.8279 16.7508 62.6653 15.7552C63.2028 15.5973 63.7562 15.5 64.3153 15.4653C64.7253 15.4053 65.1253 15.4652 65.2553 15.9752C65.3853 16.4852 65.5053 16.7952 65.1053 17.1952C64.5054 17.7848 63.781 18.2324 62.9853 18.5052C61.7053 18.9452 60.4053 19.3353 59.1353 19.8053C58.6391 19.9632 58.1811 20.2226 57.7903 20.5669C57.3995 20.9112 57.0845 21.3329 56.8653 21.8053C56.6737 22.1036 56.5718 22.4507 56.5718 22.8053C56.5718 23.1598 56.6737 23.5069 56.8653 23.8053C57.1111 24.0798 57.4279 24.2811 57.7808 24.387C58.1337 24.4929 58.509 24.4992 58.8653 24.4053C59.5652 24.255 60.2391 24.0022 60.8653 23.6553C63.3553 22.4553 65.6153 20.8853 67.9653 19.4653C68.9901 18.7621 70.0821 18.1625 71.2253 17.6752Z" fill="white"/>
<path d="M16.0052 23.2953C16.0157 22.4465 16.3316 21.63 16.8952 20.9953C18.823 18.6331 21.3617 16.8449 24.2352 15.8253C24.7334 15.6763 25.2465 15.5824 25.7652 15.5453C26.2152 15.4853 26.6552 15.5453 26.8252 16.0653C26.9271 16.2804 26.9577 16.5224 26.9128 16.7562C26.8678 16.9899 26.7496 17.2033 26.5752 17.3653C25.4821 18.2406 24.2025 18.853 22.8352 19.1553C21.9597 19.4284 21.0987 19.7455 20.2552 20.1053C19.7578 20.3134 19.317 20.6369 18.9692 21.0489C18.6215 21.461 18.3767 21.9499 18.2552 22.4752C17.9652 23.7752 18.6051 24.5553 19.9551 24.5553C20.7935 24.4949 21.6072 24.2453 22.3352 23.8253C25.1852 22.4453 27.7651 20.6153 30.4551 18.9953C31.7858 18.0694 33.3965 17.6341 35.0123 17.7636C36.6281 17.8931 38.149 18.5793 39.3152 19.7053C40.3752 20.6153 40.5552 21.3352 39.8852 21.9752C38.8852 22.9752 38.1152 22.9753 37.1652 21.8553L37.0952 21.7653C34.8952 19.1753 34.2752 19.1053 31.2652 20.7653C28.4952 22.3353 25.9451 24.3053 22.9551 25.4953C21.8456 25.9541 20.6779 26.2569 19.4852 26.3953C19.0422 26.4834 18.5847 26.4675 18.1488 26.3489C17.713 26.2303 17.3106 26.0122 16.9733 25.7117C16.6361 25.4112 16.3731 25.0366 16.2051 24.6173C16.0371 24.198 15.9686 23.7455 16.0052 23.2953Z" fill="white"/>
<path d="M118.535 23.3154C118.535 22.4245 118.867 21.5655 119.465 20.9054C121.456 18.4884 124.101 16.6968 127.085 15.7454C127.507 15.635 127.939 15.5646 128.375 15.5354C128.575 15.4773 128.79 15.4977 128.976 15.5924C129.162 15.6872 129.304 15.8492 129.375 16.0454C129.49 16.2551 129.531 16.4977 129.492 16.7338C129.452 16.9698 129.333 17.1854 129.155 17.3454C128.491 17.9523 127.703 18.4063 126.845 18.6754C125.675 19.0754 124.485 19.4154 123.325 19.8454C122.746 20.0161 122.216 20.3205 121.776 20.7339C121.337 21.1473 121.001 21.6582 120.795 22.2254C120.305 23.7154 121.055 24.6654 122.625 24.5654C123.377 24.463 124.103 24.2187 124.765 23.8454C127.277 22.5319 129.721 21.09 132.085 19.5254L133.085 18.9054C134.433 18.0584 136.025 17.6823 137.61 17.8361C139.195 17.9899 140.684 18.6649 141.845 19.7554C142.775 20.5754 142.945 21.3554 142.335 21.9554C141.335 22.9554 140.555 22.9554 139.615 21.8954C139.595 21.8598 139.571 21.8263 139.545 21.7954C137.335 19.1754 136.855 19.0654 133.855 20.7954C131.855 21.9154 129.965 23.1454 127.995 24.2954C126.128 25.4692 124.024 26.2138 121.835 26.4754C121.399 26.5404 120.953 26.5046 120.533 26.371C120.113 26.2373 119.729 26.0093 119.41 25.7043C119.092 25.3993 118.847 25.0254 118.696 24.6113C118.544 24.1973 118.489 23.754 118.535 23.3154Z" fill="white"/>
<path d="M152.846 12.1255C152.729 13.5592 152.773 15.0014 152.976 16.4255C153.086 17.1755 153.406 17.4255 154.156 17.3755C156.916 17.2855 159.626 16.7255 162.366 16.3755C163.236 16.2755 164.116 16.1655 164.986 16.0455C165.436 15.9855 165.846 16.1155 165.916 16.5755C165.986 17.0355 165.516 17.1255 165.176 17.1855C164.426 17.3055 163.666 17.4055 162.916 17.4555C160.226 17.6055 157.626 18.2555 154.916 18.6055C154.266 18.6955 154.266 18.9755 154.496 19.4955C155.444 21.5447 157.066 23.2071 159.091 24.2061C161.116 25.205 163.422 25.48 165.626 24.9855C166.086 24.8855 166.626 24.6755 166.856 25.2955C167.086 25.9155 166.405 25.9955 166.075 26.1855C165.077 26.706 163.967 26.9778 162.841 26.9778C161.714 26.9778 160.604 26.706 159.606 26.1855C156.707 24.8675 154.306 22.6563 152.755 19.8755C152.628 19.5684 152.389 19.321 152.087 19.1836C151.784 19.0462 151.44 19.029 151.126 19.1355C149.955 19.4142 148.835 19.873 147.806 20.4955C147.435 20.7265 147.043 20.9207 146.635 21.0755C146.185 21.2155 145.635 21.7355 145.265 21.0755C145.023 20.792 144.899 20.4259 144.92 20.0534C144.94 19.681 145.103 19.3307 145.376 19.0755C146.069 18.458 146.949 18.0887 147.876 18.0255C148.871 17.9083 149.873 17.8615 150.876 17.8855C151.746 17.8855 151.995 17.6755 151.765 16.7855C151.365 15.1555 151.065 13.5055 150.765 11.8555C150.485 10.5406 150.438 9.18671 150.626 7.85547C150.679 7.51444 150.766 7.1795 150.885 6.85547C151.065 6.33547 151.426 5.85547 151.976 5.85547C152.526 5.85547 152.476 6.51547 152.606 6.91547C153.031 8.61893 153.113 10.3901 152.846 12.1255Z" fill="white"/>
<path d="M102.475 23.6753C101.195 23.5953 99.9053 23.8453 98.6453 23.2253C96.9553 22.3853 96.1253 20.8054 96.8553 19.0954C97.1925 17.9824 97.4465 16.8459 97.6153 15.6953C97.9953 14.2753 99.5253 8.99535 99.6153 8.58535C99.6879 6.90586 99.8885 5.23435 100.215 3.58535C100.368 2.84151 100.701 2.14671 101.186 1.5624C101.671 0.978097 102.292 0.522295 102.995 0.235346C104.205 -0.234654 104.455 -0.0446537 104.225 1.23535C103.793 3.25675 103.208 5.24245 102.475 7.17535C102.055 8.41535 101.605 9.65534 101.145 10.8853C100.985 11.3053 98.7153 17.1153 99.1453 19.8853C99.2653 20.5853 99.9053 20.8853 100.485 21.2353C102.175 22.1053 106.585 21.8453 107.975 21.6653C110.345 21.3453 112.655 20.6653 115.075 20.6053H116.535C116.405 21.1953 115.955 21.1253 115.665 21.1953C111.99 22.2847 108.235 23.0872 104.435 23.5954C103.784 23.6597 103.13 23.6864 102.475 23.6753Z" fill="white"/>
<path d="M177.385 14.6753C177.632 14.6075 177.896 14.6284 178.13 14.7343C178.363 14.8402 178.553 15.0245 178.665 15.2553C179.281 16.1464 179.728 17.1429 179.985 18.1953C180.255 19.1953 180.765 19.2653 181.555 18.8153C183.045 17.9653 184.555 17.2153 186.005 16.2353C189.775 13.5953 196.875 15.7053 198.375 21.5953C198.445 21.8853 198.675 22.2553 198.305 22.4553C197.935 22.6553 197.795 22.2853 197.625 22.0853C196.695 20.9953 195.765 19.9053 194.855 18.7953C194.391 18.2227 193.781 17.7857 193.089 17.5306C192.397 17.2754 191.65 17.2114 190.925 17.3453C187.845 17.6553 185.395 19.2853 182.925 20.8353C182.175 21.2953 181.405 21.7253 180.635 22.1553C180.476 22.27 180.293 22.3485 180.101 22.3854C179.908 22.4224 179.709 22.4169 179.519 22.3693C179.329 22.3217 179.151 22.2331 178.998 22.1098C178.846 21.9865 178.721 21.8314 178.635 21.6553C177.484 19.8728 176.797 17.831 176.635 15.7153C176.445 14.6753 177.105 14.6753 177.385 14.6753Z" fill="white"/>
<path d="M47.8449 28.4754C47.9449 28.1554 47.9549 27.9454 48.0649 27.8254C49.4949 26.1854 49.4949 25.4154 48.0649 23.7254C46.7895 22.3474 45.364 21.1165 43.8149 20.0554C42.9864 19.4274 42.3521 18.5781 41.985 17.6054C41.8397 17.3377 41.7502 17.0434 41.7221 16.7401C41.6939 16.4369 41.7276 16.1311 41.8211 15.8412C41.9145 15.5514 42.0659 15.2836 42.266 15.054C42.466 14.8243 42.7106 14.6377 42.985 14.5054C44.405 13.5054 45.9849 12.8054 47.4649 11.9854C48.5549 11.3854 48.9749 12.1154 49.4649 12.7854C49.9549 13.4554 49.625 14.1454 48.985 14.6154C48.1709 15.1221 47.2738 15.4809 46.3349 15.6754C45.7549 15.8354 45.175 15.9754 44.605 16.1454C44.035 16.3154 43.7049 16.5654 43.7049 17.1454C43.6989 17.3892 43.7637 17.6295 43.8915 17.8372C44.0193 18.0448 44.2046 18.211 44.4249 18.3154C45.6359 19.0013 46.7691 19.816 47.8049 20.7454C48.596 21.3943 49.2352 22.2088 49.6775 23.1314C50.1198 24.054 50.3544 25.0623 50.3649 26.0854C50.4249 27.7654 48.9349 27.8254 47.8449 28.4754Z" fill="white"/>
<path d="M171.995 19.8655C171.991 20.1836 171.882 20.4915 171.685 20.7412C171.488 20.9908 171.213 21.1682 170.905 21.2455C170.155 21.4455 169.845 20.9155 169.635 20.2955C168.905 18.2155 169.055 16.0455 168.985 13.8955C168.985 13.6955 168.985 13.4555 169.225 13.4155C169.299 13.4123 169.374 13.427 169.442 13.4583C169.509 13.4896 169.569 13.5366 169.615 13.5955C170.495 15.6755 171.625 17.5955 171.995 19.8655Z" fill="white"/>
<path d="M165.985 7.56534C165.593 7.53066 165.215 7.39808 164.886 7.17972C164.558 6.96136 164.289 6.66419 164.105 6.31534C163.964 6.00564 163.921 5.65962 163.984 5.3248C164.046 4.98999 164.211 4.68276 164.455 4.44532C164.912 3.88534 165.504 3.45158 166.175 3.18534C166.32 3.10867 166.485 3.08179 166.646 3.10892C166.807 3.13605 166.954 3.21566 167.065 3.33533C167.355 3.63533 167.065 3.89532 166.915 4.16532C166.055 5.31532 166.055 5.32534 167.515 5.62534C167.835 5.68534 168.175 5.74532 168.265 6.10532C168.355 6.46532 167.995 6.65534 167.765 6.84534C167.267 7.27386 166.642 7.52683 165.985 7.56534Z" fill="white"/>
</svg>
